<svg xmlns="http://www.w3.org/2000/svg" version="1.1" xmlns:xlink="http://www.w3.org/1999/xlink" xmlns:svgjs="http://svgjs.dev/svgjs" width="1448" height="555" preserveAspectRatio="none" viewBox="0 0 1448 555"><g mask="url(&quot;#SvgjsMask1318&quot;)" fill="none"><rect width="1448" height="555" x="0" y="0" fill="url(&quot;#SvgjsLinearGradient1319&quot;)"></rect><path d="M520.965,438.659C567.158,438.067,613.559,421.906,637.345,382.303C661.774,341.629,656.85,291.411,634.556,249.529C610.653,204.625,571.832,163.145,520.965,163.673C470.719,164.194,435.561,207.793,411.385,251.844C388.343,293.829,375.073,344.041,399.304,385.351C423.314,426.284,473.514,439.267,520.965,438.659" fill="rgba(28, 83, 142, 0.4)" class="triangle-float1"></path><path d="M514.22 83.12 a150.73 150.73 0 1 0 301.46 0 a150.73 150.73 0 1 0 -301.46 0z" fill="rgba(28, 83, 142, 0.4)" class="triangle-float3"></path><path d="M174.931,449.127C207.68,446.831,237.305,431.205,254.566,403.28C272.846,373.707,279.094,337.262,263.186,306.348C245.938,272.831,212.618,247.759,174.931,248.528C138.297,249.276,111.717,278.505,92.704,309.828C72.698,342.787,53.687,382.784,73.286,415.987C92.702,448.88,136.828,451.798,174.931,449.127" fill="rgba(28, 83, 142, 0.4)" class="triangle-float1"></path><path d="M268.77 501.68 a140.91 140.91 0 1 0 281.82 0 a140.91 140.91 0 1 0 -281.82 0z" fill="rgba(28, 83, 142, 0.4)" class="triangle-float2"></path><path d="M266.352,445.925C290.505,445.024,311.716,432.467,325.064,412.317C340.242,389.403,352.813,360.234,338.759,336.614C324.881,313.29,293.474,312.66,266.352,313.639C241.463,314.537,215.986,320.618,202.464,341.533C187.814,364.193,185.44,393.986,199.525,417.001C213.105,439.19,240.355,446.895,266.352,445.925" fill="rgba(28, 83, 142, 0.4)" class="triangle-float1"></path><path d="M949.3,705.856C991.141,704.197,1031.393,690.57,1055.543,656.362C1084.391,615.5,1106.12,562.238,1081.385,518.763C1056.487,475,999.448,465.115,949.3,469.622C906.945,473.429,875.277,503.208,852.799,539.308C828.507,578.32,804.348,625.644,827.388,665.408C850.394,705.114,903.446,707.674,949.3,705.856" fill="rgba(28, 83, 142, 0.4)" class="triangle-float2"></path><path d="M1124.12 272.78 a121.71 121.71 0 1 0 243.42 0 a121.71 121.71 0 1 0 -243.42 0z" fill="rgba(28, 83, 142, 0.4)" class="triangle-float3"></path><path d="M151.475,167.404C183.37,166.334,211.774,149.536,228.671,122.463C246.742,93.509,254.116,57.976,238.81,27.471C221.936,-6.159,189.101,-31.326,151.475,-31.387C113.76,-31.448,81.68,-5.938,63.651,27.189C46.439,58.815,45.636,97.45,64.749,127.965C82.817,156.811,117.457,168.546,151.475,167.404" fill="rgba(28, 83, 142, 0.4)" class="triangle-float2"></path><path d="M940.891,642.764C971.358,643.01,997.781,625.886,1015.173,600.87C1036.103,570.765,1056.037,533.786,1039.36,501.132C1021.72,466.591,979.56,452.425,940.891,455.42C906.816,458.059,881.014,484.019,865.713,514.579C852.092,541.784,853.268,573.441,868.659,599.685C883.86,625.603,910.845,642.521,940.891,642.764" fill="rgba(28, 83, 142, 0.4)" class="triangle-float1"></path><path d="M729.45 53.18 a102.59 102.59 0 1 0 205.18 0 a102.59 102.59 0 1 0 -205.18 0z" fill="rgba(28, 83, 142, 0.4)" class="triangle-float1"></path><path d="M-112.12 539.39 a139.75 139.75 0 1 0 279.5 0 a139.75 139.75 0 1 0 -279.5 0z" fill="rgba(28, 83, 142, 0.4)" class="triangle-float3"></path><path d="M919.742,179.889C952.69,180.507,989.437,179.787,1007.799,152.423C1027.783,122.641,1025.999,81.502,1005.515,52.062C987.215,25.761,951.782,25.618,919.742,25.866C888.334,26.109,853.704,27.267,836.241,53.374C817.2,81.839,818.361,120.643,837.225,149.225C854.549,175.473,888.298,179.299,919.742,179.889" fill="rgba(28, 83, 142, 0.4)" class="triangle-float1"></path><path d="M882.26 393.67 a181.32 181.32 0 1 0 362.64 0 a181.32 181.32 0 1 0 -362.64 0z" fill="rgba(28, 83, 142, 0.4)" class="triangle-float1"></path><path d="M1154.66 219.01 a176.63 176.63 0 1 0 353.26 0 a176.63 176.63 0 1 0 -353.26 0z" fill="rgba(28, 83, 142, 0.4)" class="triangle-float3"></path></g><defs><mask id="SvgjsMask1318"><rect width="1448" height="555" fill="#ffffff"></rect></mask><linearGradient x1="84.58%" y1="-40.23%" x2="15.42%" y2="140.23%" gradientUnits="userSpaceOnUse" id="SvgjsLinearGradient1319"><stop stop-color="#0e2a47" offset="0"></stop><stop stop-color="rgba(18, 57, 109, 0.71)" offset="1"></stop></linearGradient><style>
                @keyframes float1 {
                    0%{transform: translate(0, 0)}
                    50%{transform: translate(-10px, 0)}
                    100%{transform: translate(0, 0)}
                }

                .triangle-float1 {
                    animation: float1 5s infinite;
                }

                @keyframes float2 {
                    0%{transform: translate(0, 0)}
                    50%{transform: translate(-5px, -5px)}
                    100%{transform: translate(0, 0)}
                }

                .triangle-float2 {
                    animation: float2 4s infinite;
                }

                @keyframes float3 {
                    0%{transform: translate(0, 0)}
                    50%{transform: translate(0, -10px)}
                    100%{transform: translate(0, 0)}
                }

                .triangle-float3 {
                    animation: float3 6s infinite;
                }
            </style></defs></svg>